<svg width="39" height="39" viewBox="0 0 39 39" fill="none" xmlns="http://www.w3.org/2000/svg">
<circle cx="19.5" cy="19.5" r="19.5" fill="#FFBA4A"/>
<path d="M17.4659 23.0909V22.9886C17.4773 21.9034 17.5909 21.0398 17.8068 20.3977C18.0227 19.7557 18.3295 19.2358 18.7273 18.8381C19.125 18.4403 19.6023 18.0739 20.1591 17.7386C20.4943 17.5341 20.7955 17.2926 21.0625 17.0142C21.3295 16.7301 21.5398 16.4034 21.6932 16.0341C21.8523 15.6648 21.9318 15.2557 21.9318 14.8068C21.9318 14.25 21.8011 13.767 21.5398 13.358C21.2784 12.9489 20.929 12.6335 20.4915 12.4119C20.054 12.1903 19.5682 12.0795 19.0341 12.0795C18.5682 12.0795 18.1193 12.1761 17.6875 12.3693C17.2557 12.5625 16.8949 12.8665 16.6051 13.2812C16.3153 13.696 16.1477 14.2386 16.1023 14.9091H13.9545C14 13.9432 14.25 13.1165 14.7045 12.429C15.1648 11.7415 15.7699 11.2159 16.5199 10.8523C17.2756 10.4886 18.1136 10.3068 19.0341 10.3068C20.0341 10.3068 20.9034 10.5057 21.642 10.9034C22.3864 11.3011 22.9602 11.8466 23.3636 12.5398C23.7727 13.233 23.9773 14.0227 23.9773 14.9091C23.9773 15.5341 23.8807 16.0994 23.6875 16.6051C23.5 17.1108 23.2273 17.5625 22.8693 17.9602C22.517 18.358 22.0909 18.7102 21.5909 19.017C21.0909 19.3295 20.6903 19.6591 20.3892 20.0057C20.0881 20.3466 19.8693 20.7528 19.733 21.2244C19.5966 21.696 19.5227 22.2841 19.5114 22.9886V23.0909H17.4659ZM18.5568 28.1364C18.1364 28.1364 17.7756 27.9858 17.4744 27.6847C17.1733 27.3835 17.0227 27.0227 17.0227 26.6023C17.0227 26.1818 17.1733 25.821 17.4744 25.5199C17.7756 25.2187 18.1364 25.0682 18.5568 25.0682C18.9773 25.0682 19.3381 25.2187 19.6392 25.5199C19.9403 25.821 20.0909 26.1818 20.0909 26.6023C20.0909 26.8807 20.0199 27.1364 19.8778 27.3693C19.7415 27.6023 19.5568 27.7898 19.3239 27.9318C19.0966 28.0682 18.8409 28.1364 18.5568 28.1364Z" fill="white"/>
</svg>
